# xmcd CD database file
#
# Track frame offsets:
#	150
#	5086
#	17860
#	35857
#	53444
#	64540
#	75405
#	90434
#	102481
#	118207
#	119521
#	135065
#	138387
#	148986
#	158117
#	168352
#	176169
#	187115
#	200961
#	210152
#	228524
#	240686
#
# Disc length: 3238 seconds
#
# Revision: 0
# Processed by: cddbd v1.5.1PL0 Copyright (c) Steve Scherf et al.
# Submitted via: CDex 1.51
#
DISCID=380ca416
DTITLE=Vibra - VV Summer Mix 2005
DYEAR=2005
DGENRE=Jazz
TTITLE0=Intro
TTITLE1=Salsoul Explosion - Soul Machine
TTITLE2=Jimmy Smith - I'm Gonna Love You Just A Little Bit More Babe
TTITLE3=Kerrie Biddell - Sing A Simple Song
TTITLE4=The Incredible Bongo Band - Let There Be Drums
TTITLE5=Reuben - (I Am) Drum
TTITLE6=Ramatam - Wayso
TTITLE7=Andy Robinson - To Tell You The Truth
TTITLE8=Ken Freeman - Spirit In The Sky
TTITLE9=Psychedelic Circus Radio Spot
TTITLE10=Up With People! - A New Dimension
TTITLE11=Shaggy Tramp Radio Spot
TTITLE12=Sunday Social - Soul Sacrifice
TTITLE13=Willie Hobbs and The Dirte Four - On The Move
TTITLE14=Rubin Mitchell - Loosen Up
TTITLE15=Pancho Villa - Baby Cakes
TTITLE16=Ghetto Children - Rat-A-Tat-Tat
TTITLE17=Della Reese - Who Is She And What Is She To You
TTITLE18=Alley - Tip Toe
TTITLE19=The Glitterhouse - I Lost Me A Friend
TTITLE20=Karen Beth - It's All Over Now
TTITLE21=Outro
EXTD=YEAR: 2005
EXTT0=
EXTT1=
EXTT2=
EXTT3=
EXTT4=
EXTT5=
EXTT6=
EXTT7=
EXTT8=
EXTT9=
EXTT10=
EXTT11=
EXTT12=
EXTT13=
EXTT14=
EXTT15=
EXTT16=
EXTT17=
EXTT18=
EXTT19=
EXTT20=
EXTT21=
PLAYORDER=
